<svg xmlns="http://www.w3.org/2000/svg" width="122.11" height="54.51" viewBox="0 0 122.11 54.51">
  <defs>
    <style>
      .cls-1 {
        fill: #cb2027;
      }

      .cls-2 {
        fill: #66091d;
      }
    </style>
  </defs>
  <g id="Layer_2" data-name="Layer 2">
    <g id="Layer_1-2" data-name="Layer 1">
      <g>
        <path class="cls-1" d="M8.75,51.53a3.36,3.36,0,0,1-1.28,2.22,4.59,4.59,0,0,1-2.76.73,4.44,4.44,0,0,1-3.19-1.11,4.43,4.43,0,0,1,0-6,4.34,4.34,0,0,1,3.14-1.12,3.92,3.92,0,0,1,3,1.11,4.45,4.45,0,0,1,1.05,3.18v.27H3.64V51A2.35,2.35,0,0,0,4,52.46,1.38,1.38,0,0,0,5.19,53a1.45,1.45,0,0,0,1-.37,1.88,1.88,0,0,0,.54-1.07ZM3.64,49.4H6v-.12a2,2,0,0,0-.31-1.17,1.05,1.05,0,0,0-.88-.41,1,1,0,0,0-.85.45A2.12,2.12,0,0,0,3.64,49.4Z"/>
        <path class="cls-1" d="M10.79,54.3H9.65V51.5h1.43a2.1,2.1,0,0,0,.8,1.12,2.5,2.5,0,0,0,1.39.37,1.56,1.56,0,0,0,.82-.16.51.51,0,0,0,.25-.48c0-.3-.42-.57-1.26-.82l-.68-.2A6.87,6.87,0,0,1,10,50.23a1.84,1.84,0,0,1-.54-1.4,2.19,2.19,0,0,1,1-1.87,4.43,4.43,0,0,1,2.65-.7,6.6,6.6,0,0,1,1.43.15,6.69,6.69,0,0,1,1.35.45l.22-.45h1.2v2.41H16.05a2.35,2.35,0,0,0-.89-.88,2.6,2.6,0,0,0-1.25-.3,1.57,1.57,0,0,0-.76.15.48.48,0,0,0-.28.43c0,.32.4.61,1.21.85l.48.15.42.13a7.84,7.84,0,0,1,1.87.78,1.74,1.74,0,0,1,.62.72,2.21,2.21,0,0,1,.22,1,2.24,2.24,0,0,1-1,1.91,4.35,4.35,0,0,1-2.61.69,7,7,0,0,1-1.67-.19,5.38,5.38,0,0,1-1.38-.56Z"/>
        <path class="cls-1" d="M19.53,48H18.46V46.55h.07A1.77,1.77,0,0,0,20,45.86a5.16,5.16,0,0,0,.79-2.28h1.91v3H25V48H22.72V52.1a1.37,1.37,0,0,0,.14.69.47.47,0,0,0,.43.21.5.5,0,0,0,.5-.34,4.06,4.06,0,0,0,.15-1.37v-.71h1.39v1a3.11,3.11,0,0,1-.66,2.24,3,3,0,0,1-2.2.66A4,4,0,0,1,21,54.27a2.4,2.4,0,0,1-1-.71,2,2,0,0,1-.38-.72,6,6,0,0,1-.11-1.37Z"/>
        <path class="cls-1" d="M27,53a1.41,1.41,0,0,1,.43-1,1.52,1.52,0,0,1,2.12,0,1.51,1.51,0,0,1,0,2.11,1.52,1.52,0,0,1-2.12,0A1.42,1.42,0,0,1,27,53Z"/>
        <path class="cls-1" d="M37.07,54.2a1.36,1.36,0,0,0,0-.18,1.31,1.31,0,0,1,0-.17,4.07,4.07,0,0,1,.45-2A5.41,5.41,0,0,1,39,50.25a13.29,13.29,0,0,1,1.31-.87c.6-.36,1-.64,1.3-.84a1.69,1.69,0,0,0,.49-.6,1.71,1.71,0,0,0,.18-.77,1.22,1.22,0,0,0-.45-1,2,2,0,0,0-1.24-.36,2.38,2.38,0,0,0-.91.16,2,2,0,0,0-.7.49H39a1.25,1.25,0,0,1,.9.3,1.11,1.11,0,0,1,.32.84,1.45,1.45,0,0,1-.43,1.12,1.65,1.65,0,0,1-1.17.41,1.6,1.6,0,0,1-1.2-.47A1.81,1.81,0,0,1,37,47.4,2.92,2.92,0,0,1,38.24,45a5,5,0,0,1,3.13-.94,5,5,0,0,1,3.15.93,2.91,2.91,0,0,1,1.2,2.41,2.55,2.55,0,0,1-.79,2,7.29,7.29,0,0,1-2.78,1.35l-.66.18c-1.29.36-2,.78-2.19,1.27a5.68,5.68,0,0,1,1.05-.43,4.13,4.13,0,0,1,1-.14,6.31,6.31,0,0,1,1.32.19,5.67,5.67,0,0,0,1,.2.56.56,0,0,0,.51-.27,1.66,1.66,0,0,0,.17-.83v-.14h1.65c0,.07,0,.14,0,.22v.34a3.62,3.62,0,0,1-.67,2.43,2.66,2.66,0,0,1-2.12.76,7.62,7.62,0,0,1-2.13-.38,8.09,8.09,0,0,0-1.61-.38.94.94,0,0,0-.51.12.58.58,0,0,0-.28.36Z"/>
        <path class="cls-1" d="M47.24,49.27a5.32,5.32,0,0,1,1.33-3.78,4.57,4.57,0,0,1,3.5-1.43,4.52,4.52,0,0,1,3.47,1.44,6,6,0,0,1,0,7.53A4.55,4.55,0,0,1,52,54.46,4.48,4.48,0,0,1,48.57,53,5.27,5.27,0,0,1,47.24,49.27Zm6.13,0a8.83,8.83,0,0,0-.31-2.78c-.2-.57-.54-.85-1-.85a1.08,1.08,0,0,0-1,.85,8.72,8.72,0,0,0-.32,2.78A9,9,0,0,0,51,52c.21.57.55.85,1,.85a1.06,1.06,0,0,0,1-.84A8.74,8.74,0,0,0,53.37,49.27Z"/>
        <path class="cls-1" d="M57.72,49.27a5.32,5.32,0,0,1,1.33-3.78,4.56,4.56,0,0,1,3.49-1.43A4.49,4.49,0,0,1,66,45.5a5.29,5.29,0,0,1,1.33,3.77A5.27,5.27,0,0,1,66,53a5,5,0,0,1-7,0A5.31,5.31,0,0,1,57.72,49.27Zm6.13,0a9.14,9.14,0,0,0-.31-2.78c-.21-.57-.54-.85-1-.85s-.81.28-1,.85a8.44,8.44,0,0,0-.32,2.78A8.71,8.71,0,0,0,61.51,52c.21.57.55.85,1,.85s.8-.28,1-.84A9.05,9.05,0,0,0,63.85,49.27Z"/>
        <path class="cls-1" d="M72.15,49.76V48.4a2.41,2.41,0,0,0,1.27-.34,1.06,1.06,0,0,0,.41-.91A1.47,1.47,0,0,0,73.35,46a1.89,1.89,0,0,0-1.3-.43,2.19,2.19,0,0,0-.82.14,1.28,1.28,0,0,0-.57.43,1,1,0,0,1,.74.29,1.09,1.09,0,0,1,.28.76,1.19,1.19,0,0,1-.39,1,1.62,1.62,0,0,1-1.1.33,1.54,1.54,0,0,1-1.13-.41A1.45,1.45,0,0,1,68.62,47a2.43,2.43,0,0,1,1.23-2.13,6,6,0,0,1,3.31-.8,5,5,0,0,1,2.89.72,2.27,2.27,0,0,1,1,2,2,2,0,0,1-.45,1.33,2.87,2.87,0,0,1-1.35.81,3.42,3.42,0,0,1,1.64,1,2.39,2.39,0,0,1,.53,1.58,2.55,2.55,0,0,1-1.16,2.2,5.7,5.7,0,0,1-3.22.79,7.18,7.18,0,0,1-3.51-.68,2.15,2.15,0,0,1-1.2-2,1.68,1.68,0,0,1,.52-1.28A1.75,1.75,0,0,1,70.17,50a1.63,1.63,0,0,1,1.12.38,1.29,1.29,0,0,1,.42,1,1.08,1.08,0,0,1-.31.85,1.74,1.74,0,0,1-1,.36,2.24,2.24,0,0,0,.71.28A3.88,3.88,0,0,0,72,53a2.19,2.19,0,0,0,1.46-.43A1.53,1.53,0,0,0,74,51.31a1.43,1.43,0,0,0-.47-1.15A2,2,0,0,0,72.15,49.76Z"/>
        <path class="cls-2" d="M15.29,15.36A15.42,15.42,0,0,1,20,11.89a13.24,13.24,0,0,1,5.55-1.14,10.84,10.84,0,0,1,4.75.94,7.77,7.77,0,0,1,3.21,2.85A15.3,15.3,0,0,1,38,11.71a13.44,13.44,0,0,1,5-1q5.34,0,7.57,2.35t2.23,8.13V32a3.25,3.25,0,0,0,.56,2.26,3.39,3.39,0,0,0,2.27.54h.7v5.25H38.55V34.8a3,3,0,0,0,2-.57A3.49,3.49,0,0,0,41.06,32V21.81a7.06,7.06,0,0,0-.71-3.66,2.67,2.67,0,0,0-2.41-1.1,3.1,3.1,0,0,0-2.85,1.57,10,10,0,0,0-.92,4.88V32a4.18,4.18,0,0,0,.4,2.27,1.82,1.82,0,0,0,1.53.53h.64v5.25H20V34.8h.58a1.82,1.82,0,0,0,1.54-.55A4.37,4.37,0,0,0,22.47,32V21.81a6.83,6.83,0,0,0-.73-3.66,2.73,2.73,0,0,0-2.45-1.1,3,3,0,0,0-2.8,1.58,10.33,10.33,0,0,0-.91,5V32a3.48,3.48,0,0,0,.51,2.23A2.48,2.48,0,0,0,18,34.8h.26v5.25H0V34.8H1a3.32,3.32,0,0,0,2.26-.54A3.32,3.32,0,0,0,3.82,32V19.91a3.31,3.31,0,0,0-.54-2.27A3.38,3.38,0,0,0,1,17.11H0V11.83H15.29Z"/>
        <path class="cls-1" d="M75.81,28.43s4.82,11.64,21.74,16.46,24.56,3.64,24.56,3.64S89.73,41.82,85,21.84C74.57,23.3,75.81,28.43,75.81,28.43Z"/>
        <path class="cls-1" d="M78.12,10.14v5.62h.68a3.52,3.52,0,0,1,1.46.21.68.68,0,0,1,.41.66,1.26,1.26,0,0,1-.22.7,2.4,2.4,0,0,1-.69.64l-6.12,4.84v7.44l4.23-3.12,8.88-6.61L91,17.22a6,6,0,0,1,2.21-1.1,10.94,10.94,0,0,1,2.91-.36V10.14Z"/>
        <path class="cls-2" d="M74.49,34.28a2.8,2.8,0,0,1-.57-2c0-.35,0-.62,0-.79V8.24h0V0H58.22V5.25h1.32a3.34,3.34,0,0,1,2.26.54,3.35,3.35,0,0,1,.54,2.27V32a3.35,3.35,0,0,1-.54,2.27,3.34,3.34,0,0,1-2.26.54h-1.2V40.1H76.75V34.85h-.26A2.8,2.8,0,0,1,74.49,34.28Z"/>
      </g>
    </g>
  </g>
</svg>
