<?xml version="1.0" encoding="UTF-8"?>
<svg xmlns="http://www.w3.org/2000/svg" width="54.68" height="63.998" viewBox="0 0 54.68 63.998">
  <path id="Path_496" data-name="Path 496" d="M24570.875,23941.7a9.357,9.357,0,0,0,3.152-4.289c.234-.686.482-1.582.734-2.645.082-.322.137-.773.217-1.125l2.658-16.016h3.193l-1.988,17.949-.822,7.385-7.145.043Zm39.35,1.26-.76-4.053-.357-2.016a48.513,48.513,0,0,0,5.857-1.854,11.767,11.767,0,0,0,5.314,6.588v1.334Zm-25.953-7.15a35.157,35.157,0,0,1-3.447-1.006l-.3-.111.471-4.566a25.133,25.133,0,0,0,10.635,3.219c6.266.6,13.063.02,18.783-2.781a15.8,15.8,0,0,0,6.266-4.992,3.761,3.761,0,0,0,.791-2.225l1-.451,3.207,6.643s-.729.539-.92.674a25.369,25.369,0,0,1-5.365,2.967,49.8,49.8,0,0,1-14.342,3.541,58.745,58.745,0,0,1-5.873.3A47.424,47.424,0,0,1,24584.271,23935.8Zm1.168-5.258a19.353,19.353,0,0,1-3.6-1.762c-.129-.08-.611-.4-.611-.4.137-1.49.457-4.912.457-4.912l.736.314s.1.383.146.506a4.058,4.058,0,0,0,.285.631,8.1,8.1,0,0,0,2.113,2.33,10.547,10.547,0,0,0,6.971,2.256,7.17,7.17,0,0,0,6.055-3.289,6.577,6.577,0,0,0-.061-6.592c-1.322-2.09-3.943-2.75-6.174-3.381a14.825,14.825,0,0,1-6.34-3.113c-3.1-2.918-2.824-7.83-.346-11.068,2.385-3.113,6.549-3.91,10.25-4.01a31.528,31.528,0,0,1,3.721.129c.514.037,1.236.162,1.236.162s.623,3,.865,4.164l-.754-.031a2.677,2.677,0,0,0-.254-.266c-2.076-2.057-5.852-2.385-8.533-1.643a6.957,6.957,0,0,0-5.1,4.844c-.568,2.521,1.111,4.623,3.33,5.611,2.428,1.074,5.154,1.137,7.662,1.965,3.09,1.02,5.926,2.99,7.02,6.172a9.962,9.962,0,0,1-.729,8.424c-1.7,2.613-4.8,3.775-7.773,4.146a22.841,22.841,0,0,1-10.58-1.187Zm-18.437-15.479c0-.477.018-.959.049-1.428l.02-.283c.648-8.207,4.633-15.146,14.73-18.334a.594.594,0,0,0,.068-.025c.494-.154,1.006-.3,1.525-.432a46.978,46.978,0,0,1,12.014-1.422c1.389,0,2.719.061,4.01.154l.668,3.535a44.4,44.4,0,0,0-4.512-.223h-.012a29.485,29.485,0,0,0-12.668,2.447,19.335,19.335,0,0,0-3.176,1.871,15.993,15.993,0,0,0-6.377,12.428h10.295a11.971,11.971,0,0,0,3.775,2.848h-14.064a16.166,16.166,0,0,0,1.736,7.83l-1.279,7.094C24568.541,23927.131,24567,23921.377,24567,23915.068Zm38.459,2.553h6.266l1.668,9.219a20,20,0,0,1-5.617,3.158Zm12.111,0s-.432-1.422-3.707-1.422h-9.375a11.3,11.3,0,0,0-3.09-2.842h12.285c3.418,0,3.912-1.416,3.912-1.416h.711v5.68Zm-13.18-5.68-3.752-19.965-.252-1.354c-.428-2.441-.773-4.621-.459-5.926l-.377.129s-12.648,4.086-15.682,5.42l-.309,2.8c-1.064.26-2.084.563-3.066.9.385-3.553.605-5.809.605-5.809l25.059-9.145.141,1.148c-1.16,2.064-.605,4.512-.1,7.076l1.057,5.809.277,1.525.742,4.1,2.416,13.279Zm-26.01,0c.4-3.1.773-6.174,1.107-9.021a16.482,16.482,0,0,1,3.219-2.213l-1.248,11.234Zm39.318-5.457c-.146-1.994-1.982-4.818-7.779-7.123l-.822-4.389c8.484,2.35,12.563,6.137,12.563,6.137l-3,5.871Z" transform="translate(-24567.002 -23879)" fill="#fff"></path>
</svg>
